<svg xmlns="http://www.w3.org/2000/svg" viewBox="0 0 193.16 241.71"><defs><style>.cls-1{fill:#fff;}</style></defs><g id="Layer_2" data-name="Layer 2"><g id="Layer_1-2" data-name="Layer 1"><path class="cls-1" d="M69.58,111.47H14.35c-7.21,0-14.1,6-14.1,13.46v56.52c0,7.44,6.89,13.46,14.1,13.46H69.58c7.22,0,14.11-6,14.11-13.46V124.93c0-7.43-6.89-13.46-14.11-13.46m0,70H14.35V124.93H69.58Z"/><path class="cls-1" d="M164.42,152.8,191,111.47H174.08l-19.74,30.71a7.81,7.81,0,0,1-6.5,3.53h-1.25a7.83,7.83,0,0,1-6.51-3.53L120.4,111.47H103.5L130.11,153l-28.39,41.92h17.2l21.79-32.19a7.8,7.8,0,0,1,6.5-3.54h.31a7.82,7.82,0,0,1,6.5,3.54l21.9,32.19h17.24Z"/><path class="cls-1" d="M36.22,34.33,28.28,47.78H69.51V70.05H14.37V13.53H75.69l8-13.46H14.37C7.16.07.27,6.1.27,13.53V70.05c0,7.44,6.89,13.47,14.1,13.47H69.51c7.21,0,14.11-6,14.11-13.47V34.33Z"/><path class="cls-1" d="M174.13,0H113.18V83.58h60.95c7.23,0,14.13-6,14.13-13.49V54.3c0-7.44-4.47-13.49-11.7-13.49,7.23,0,11.7-6,11.7-13.48V13.49C188.26,6,181.36,0,174.13,0m0,64.55a5.45,5.45,0,0,1-5.37,5.54H127.31V47.79h41.45a5.45,5.45,0,0,1,5.37,5.54Zm0-35.78a5.45,5.45,0,0,1-5.37,5.54H127.31V13.49h41.45A5.45,5.45,0,0,1,174.13,19Z"/><path class="cls-1" d="M2.38,235.91c.74,2.53,2.14,3.64,4.73,3.64,3.09,0,4.7-1.54,4.7-4.51a4,4,0,0,0-1.23-3.16c-.77-.64-.94-.71-3.85-1.54-4.28-1.2-6-3.1-6-6.67,0-4,2.45-6.37,6.59-6.37,3.57,0,5.54,1.47,6.31,4.74l-2.39.6c-.7-2.3-1.78-3.17-4-3.17-2.45,0-3.89,1.5-3.89,4.07s1.23,3.67,4.74,4.67c2.87.83,3.36,1,4.38,1.8a5.82,5.82,0,0,1,2,4.9c0,4.4-2.55,6.8-7.32,6.8C3,241.71.84,240.18,0,236.54Z"/><path class="cls-1" d="M40.71,219.8H34.89v-2.2H49.23v2.2H43.45v21.61H40.71Z"/><path class="cls-1" d="M73.89,217.6v16.18c0,2.07.17,3.1.73,3.93a3.82,3.82,0,0,0,3.65,1.84c2.1,0,3.29-.6,4.06-2.1a7.82,7.82,0,0,0,.56-3.67V217.6h2.74v16.18c0,3-.28,4.23-1.26,5.5-1.34,1.7-3.12,2.43-6,2.43s-5-.86-6.2-2.8c-.77-1.16-1-2.43-1-5.13V217.6Z"/><path class="cls-1" d="M109.24,217.6h6.65c5.26-.1,7.89,2.6,7.78,7.9v8c.11,5.3-2.52,8-7.78,7.9h-6.65Zm6.41,21.65c3.71.06,5.29-1.77,5.29-6.11v-7.3c0-4.3-1.58-6.14-5.29-6.07H112v19.48Z"/><path class="cls-1" d="M146.83,217.6h2.73v23.81h-2.73Z"/><path class="cls-1" d="M172.68,225.5c0-2.9.49-4.63,1.69-6,1.33-1.54,3.15-2.24,5.78-2.24,2.8,0,4.76.84,6.06,2.6,1,1.3,1.37,2.94,1.37,5.6v8c0,2.9-.5,4.63-1.69,6-1.33,1.53-3.15,2.23-5.74,2.23-2.84,0-4.81-.83-6.1-2.6-1-1.3-1.37-3-1.37-5.6Zm12.16.27c0-4.37-1.43-6.3-4.73-6.3s-4.7,1.93-4.7,6.3v7.47c0,4.37,1.44,6.31,4.7,6.31s4.73-1.94,4.73-6.31Z"/></g></g></svg>